PathFileType  4	(X/Y/Z) C:\Users\antoi\Documents\MyRepositories\mobilecap\ResultsAnalysis
DataRate	CameraRate	NumFrames	NumMarkers	Units	OrigDataRate	OrigDataStartFrame	OrigNumFrames
100.0	100.0	4	51	mm	100.0	1717	2288
Frame#	Time	r_knee			r_shank_antsup			r_ankle			r_calc			r_5meta			r_toe			L_knee			L_shank_antsup			L_ankle			L_calc			L_5meta			L_toe			r_sh2			r_sh3			r_sh4			L_sh2			L_sh3			r_thigh1			r_thigh2			r_thigh3			r_thigh4			r_thigh5			L_thigh1			L_thigh2			L_thigh3			L_thigh4			r.ASIS			r.PSIS			L.ASIS			L.PSIS			C7			R_Shoulder			L_Shoulder			R_Sternum			L_Sternum			R_humerus			R_elbow_med			R_elbow_lat			R_forearm			R_wrist_radius			R_wrist_ulna			L_humerus			L_elbow_med			L_elbow_lat			L_forearm			L_wrist_radius			L_wrist_ulna			R_HJC			L_HJC			R_HJC_reg			L_HJC_reg			
		X1	Y1	Z1	X2	Y2	Z2	X3	Y3	Z3	X4	Y4	Z4	X5	Y5	Z5	X6	Y6	Z6	X7	Y7	Z7	X8	Y8	Z8	X9	Y9	Z9	X10	Y10	Z10	X11	Y11	Z11	X12	Y12	Z12	X13	Y13	Z13	X14	Y14	Z14	X15	Y15	Z15	X16	Y16	Z16	X17	Y17	Z17	X18	Y18	Z18	X19	Y19	Z19	X20	Y20	Z20	X21	Y21	Z21	X22	Y22	Z22	X23	Y23	Z23	X24	Y24	Z24	X25	Y25	Z25	X26	Y26	Z26	X27	Y27	Z27	X28	Y28	Z28	X29	Y29	Z29	X30	Y30	Z30	X31	Y31	Z31	X32	Y32	Z32	X33	Y33	Z33	X34	Y34	Z34	X35	Y35	Z35	X36	Y36	Z36	X37	Y37	Z37	X38	Y38	Z38	X39	Y39	Z39	X40	Y40	Z40	X41	Y41	Z41	X42	Y42	Z42	X43	Y43	Z43	X44	Y44	Z44	X45	Y45	Z45	X46	Y46	Z46	X47	Y47	Z47	X48	Y48	Z48	X49	Y49	Z49	X50	Y50	Z50	X51	Y51	Z51	

1717	17.16000000	-206.32077	456.72696	-417.61468	-146.67924	358.22867	-432.25212	-240.88795	93.02574	-439.32714	-289.28830	51.56468	-492.14591	-132.44408	44.67224	-401.30535	-94.31975	62.77192	-442.08138	-201.36455	460.04390	-811.65120	-137.24702	361.85436	-767.58892	-250.50473	93.09233	-800.56115	-298.82485	52.83917	-748.86235	-134.79113	37.77579	-819.80566	-94.31189	58.31042	-768.36696	-164.65769	247.14907	-441.46754	-204.81994	361.38974	-382.83512	-235.77139	255.99932	-399.32889	-191.73454	389.48167	-833.74225	-211.36528	270.84539	-848.51240	-491.80348	562.05485	-453.93766	-387.23685	564.08590	-442.07498	-365.18833	520.64755	-391.85058	-496.91369	461.49099	-402.22882	-381.88685	465.51264	-389.26735	-474.92491	548.95030	-803.86443	-342.60688	555.40893	-802.52437	-484.72068	441.67330	-842.04373	-343.24666	451.63430	-838.45366	-535.85083	604.10429	-508.95079	-714.15955	568.14451	-574.53336	-531.93170	598.46998	-742.61078	-716.52485	565.89052	-687.06157	-639.57882	1039.41424	-623.96650	-589.50224	1003.75028	-472.05753	-582.49479	1013.18923	-779.05054	-522.25785	975.22562	-607.65911	-522.07968	972.02115	-649.40301	-598.94793	881.27384	-400.63325	-724.69272	701.39372	-434.19181	-679.72089	712.90395	-363.31503	-567.89909	723.65466	-411.56247	-489.47574	755.18242	-467.49586	-477.95579	719.63168	-462.23628	-583.69640	868.91824	-853.09005	-683.94444	693.04685	-818.77879	-654.02601	695.36797	-893.17933	-555.75207	708.28569	-849.43463	-464.75226	747.12672	-766.89056	-456.32208	715.20774	-768.56818	-586.56527	502.15064	-527.64367	-578.27469	496.56892	-716.75751	-569.75883	513.07082	-538.78403	-573.00040	509.98180	-693.00081	
1718	17.17000000	-206.37185	456.68836	-417.57780	-146.73494	358.29935	-432.11074	-240.97362	93.04055	-439.19987	-289.42225	51.74768	-491.87506	-132.44894	44.65637	-401.38768	-94.32270	62.87696	-442.04701	-201.33266	460.13545	-811.61903	-137.22576	361.97901	-767.48242	-250.50618	93.41620	-800.63018	-298.79061	53.01047	-748.75095	-134.77330	37.92081	-819.75471	-94.30465	58.37094	-768.26054	-164.77257	247.20200	-441.24416	-204.98773	361.41482	-382.63195	-235.14857	255.08850	-399.40289	-191.61273	389.66718	-833.79142	-211.27738	270.92038	-848.49931	-491.76049	562.07035	-453.71402	-387.44938	564.30571	-441.87251	-365.17664	520.62019	-391.82373	-496.96161	461.51482	-402.02808	-381.90816	465.49357	-389.20234	-474.92369	548.93244	-804.31889	-342.57547	555.42487	-802.77055	-484.61683	441.78823	-842.29670	-343.21585	451.64408	-838.54900	-534.23612	603.57135	-509.06191	-712.85304	569.84700	-574.70837	-530.35903	597.98107	-742.41432	-715.11575	567.45100	-687.24233	-631.83044	1040.13146	-623.80609	-582.21122	1003.76947	-472.22859	-574.92887	1013.33546	-779.08384	-515.31675	974.60792	-607.31306	-515.03336	971.17894	-648.93503	-593.00460	881.41493	-400.69188	-721.34286	703.16470	-434.29432	-675.95819	714.03696	-363.50796	-564.05270	723.54701	-411.69888	-485.26229	754.16110	-467.67007	-474.17766	718.51113	-462.36337	-577.74614	869.34040	-852.71822	-680.53641	694.47589	-819.13708	-650.33081	696.57237	-893.22067	-552.01485	708.25509	-849.30160	-460.64283	745.91694	-766.72432	-452.69330	713.93845	-768.16091	-586.12453	502.26449	-527.69053	-577.75584	496.60314	-716.79855	-569.39612	513.26437	-538.75496	-572.49285	509.98562	-692.76664	
1719	17.18000000	-206.45772	456.68084	-417.50570	-146.81167	358.38395	-431.88170	-241.08096	93.08575	-439.02003	-289.47501	51.82304	-491.69933	-132.47544	44.68319	-401.37071	-94.31949	62.99839	-441.96449	-201.28042	460.14936	-811.50090	-137.20267	362.10288	-767.39881	-250.49788	93.71585	-800.60444	-298.76818	53.20325	-748.60012	-134.74276	38.06600	-819.68703	-94.28710	58.45382	-768.16986	-164.82695	247.30526	-441.07327	-205.13245	361.42226	-382.50342	-234.86841	254.46892	-399.46644	-191.50591	389.85970	-833.79465	-211.19170	271.00015	-848.44533	-491.75791	562.06973	-453.58414	-387.00789	565.06217	-441.15519	-365.17391	520.61244	-391.75238	-497.01270	461.58296	-401.88302	-381.95176	465.48677	-389.14818	-474.88023	548.93958	-804.74215	-342.53833	555.42515	-803.00889	-484.60563	441.81757	-842.35452	-343.17535	451.69288	-838.57965	-532.63735	602.98999	-509.11144	-711.42583	571.68080	-574.84501	-528.69139	597.45274	-742.30446	-713.65459	569.03927	-687.24694	-624.30840	1041.11080	-623.37180	-574.52067	1003.69602	-472.32292	-567.03719	1013.38139	-778.89938	-507.94282	973.87179	-607.16028	-507.60724	970.18595	-648.34552	-586.77076	881.55634	-400.70119	-717.30339	704.31943	-434.42586	-672.06776	715.28911	-363.56906	-559.97458	723.43417	-411.77312	-480.90713	753.07600	-467.83808	-470.17167	717.30695	-462.44456	-571.16625	869.83909	-852.30933	-677.06128	696.08470	-819.37724	-646.47759	697.82344	-893.25837	-548.19495	708.09965	-849.11949	-456.47209	744.56910	-766.37943	-448.94661	712.65180	-767.63349	-585.66071	502.40601	-527.67950	-577.25004	496.62030	-716.78186	-569.01556	513.51512	-538.58304	-572.06718	509.89818	-692.48323	
1720	17.19000000	-206.57148	456.65791	-417.40176	-146.92760	358.48452	-431.57368	-241.16528	93.14016	-438.88586	-289.54890	51.92346	-491.56704	-132.51459	44.67103	-401.33222	-94.33159	63.11900	-441.86840	-201.21659	460.04010	-811.33090	-137.17116	362.19202	-767.29468	-250.47724	93.89709	-800.50207	-298.76041	53.40910	-748.45601	-134.70993	38.20025	-819.61480	-94.26680	58.54774	-768.09323	-164.85076	247.39660	-440.91360	-205.24431	361.45773	-382.39814	-234.98142	254.36947	-399.48140	-191.41669	389.98787	-833.79502	-211.14716	271.08885	-848.42103	-491.72553	562.11389	-453.55589	-385.85395	565.71093	-440.47012	-365.16690	520.64532	-391.65109	-497.09656	461.76049	-401.71590	-381.97454	465.51668	-389.04950	-474.72964	548.95910	-805.12684	-342.48986	555.49392	-803.29430	-484.62224	441.79007	-842.40516	-343.14815	451.73642	-838.65054	-530.89770	602.43355	-508.92056	-709.90499	573.41060	-574.66562	-526.86791	596.94416	-742.42961	-712.14029	570.68723	-687.04216	-616.21375	1041.92212	-622.98417	-566.38522	1003.62975	-472.19498	-558.85234	1013.42533	-778.52913	-500.21907	973.13736	-607.33030	-499.76839	969.19768	-648.15543	-580.33588	881.67466	-400.63263	-712.39097	705.21485	-434.17294	-667.97690	716.65884	-363.47426	-555.67409	723.30346	-411.84444	-476.39144	751.93224	-467.90648	-466.04345	715.93559	-462.58756	-564.45579	870.08522	-852.19914	-673.26500	697.76522	-819.50938	-642.48559	699.14450	-893.40679	-544.18951	707.82961	-848.97109	-452.14350	742.96360	-765.90942	-445.01802	711.17184	-767.36750	-585.00025	502.54731	-527.57825	-576.68935	496.67424	-716.68229	-568.34152	513.48528	-538.36842	-571.40688	509.75054	-692.47439	
